<svg xmlns="http://www.w3.org/2000/svg" width="21" height="21" viewBox="0 0 21 21"><g transform="translate(-385 -244)"><circle cx="10.5" cy="10.5" r="10.5" transform="translate(385 244)" fill="#ff4600"/><path d="M4.824,83.5l1.989-1.989a.622.622,0,0,0,0-.884l-.439-.442a.622.622,0,0,0-.884,0L3.5,82.172l-1.992-1.99a.622.622,0,0,0-.884,0l-.442.439a.622.622,0,0,0,0,.884l1.99,2L.182,85.487a.622.622,0,0,0,0,.884l.442.442a.622.622,0,0,0,.884,0L3.5,84.824l1.989,1.989a.622.622,0,0,0,.884,0l.442-.442a.622.622,0,0,0,0-.884Z" transform="translate(392.002 171.002)" fill="#fff" stroke="rgba(0,0,0,0)" stroke-width="1"/></g></svg>